<?xml version="1.0" encoding="utf-8"?><svg version="1.1" id="Layer_1" xmlns="http://www.w3.org/2000/svg" xmlns:xlink="http://www.w3.org/1999/xlink" x="0px" y="0px" viewBox="0 0 122.88 122.88" style="enable-background:new 0 0 122.88 122.88" xml:space="preserve"><style type="text/css"><![CDATA[
	.st0{fill:#FFFFFF;}
	.st1{fill:#00C70A;}
]]></style><g><path class="st1" d="M18.43,0h86.02c10.18,0,18.43,8.25,18.43,18.43v86.02c0,10.18-8.25,18.43-18.43,18.43H18.43 C8.25,122.88,0,114.63,0,104.45V18.43C0,8.25,8.25,0,18.43,0L18.43,0z"/><path class="st0" d="M96.48,88.56c5.52-4.08,9.12-10.08,9.12-16.8c0-12.24-12-22.08-26.64-22.08c-14.64,0-26.4,9.84-26.4,22.08 c0,12.24,11.76,22.08,26.4,22.08c3.12,0,6-0.48,8.64-1.2c0.96-0.24,1.92,0,2.16,0.24l6,3.36c0.72,0.48,1.44,0,1.2-0.96L95.52,90 C95.52,89.28,96,88.8,96.48,88.56L96.48,88.56L96.48,88.56z M70.08,68.16c-0.3,0.08-0.61,0.12-0.92,0.12c-1.99,0-3.6-1.61-3.6-3.6 c0-1.99,1.61-3.6,3.6-3.6c0.31,0,0.62,0.04,0.92,0.12c1.58,0.42,2.68,1.85,2.68,3.48C72.76,66.31,71.66,67.74,70.08,68.16 L70.08,68.16L70.08,68.16z M87.84,68.16c-0.3,0.08-0.61,0.12-0.92,0.12c-1.99,0-3.6-1.61-3.6-3.6c0-1.99,1.61-3.6,3.6-3.6 c0.31,0,0.62,0.04,0.92,0.12c1.58,0.42,2.68,1.85,2.68,3.48C90.52,66.31,89.42,67.74,87.84,68.16L87.84,68.16L87.84,68.16z M49.2,25.2c-17.52,0-31.68,12-31.68,26.64c0,7.92,4.08,15.12,10.8,19.92c0.72,0.48,1.2,1.2,0.96,2.4l-1.68,5.76 c-0.24,1.2,0.72,1.68,1.44,1.44l7.2-4.08c0.72-0.48,1.68-0.72,2.64-0.48c6.24,1.92,11.52,1.44,12.24,1.44 c-5.76-20.16,14.16-31.68,29.52-30.72C78.24,35.04,65.04,25.2,49.2,25.2L49.2,25.2L49.2,25.2z M38.64,47.52 c-0.33,0.08-0.67,0.12-1.01,0.12c-2.39,0-4.32-1.93-4.32-4.32c0-2.39,1.94-4.32,4.32-4.32c0.34,0,0.68,0.04,1.01,0.12 c1.94,0.47,3.31,2.2,3.31,4.2S40.58,47.05,38.64,47.52L38.64,47.52L38.64,47.52z M60,47.52c-0.33,0.08-0.67,0.12-1.01,0.12 c-2.39,0-4.32-1.93-4.32-4.32c0-2.39,1.94-4.32,4.32-4.32c0.34,0,0.68,0.04,1.01,0.12c1.94,0.47,3.31,2.2,3.31,4.2 S61.94,47.05,60,47.52L60,47.52L60,47.52z M60,47.52L60,47.52L60,47.52L60,47.52z"/></g></svg>